<svg width="16" height="16" viewBox="0 0 16 16" fill="none" xmlns="http://www.w3.org/2000/svg">
<rect width="16" height="16" fill="#141D40"/>
<path d="M6.95352 14C6.49234 14 6.09948 13.8326 5.77495 13.4978C5.4675 13.1443 5.37676 12.6947 5.29669 12.2143L5.14063 11.3199L6.66877 10.4871L6.96092 12.2143H8.79134L9.61082 7.43859L4.83705 9.53572L3.76645 3.28571C3.6867 2.78632 3.90675 2.38356 4.2142 2.03013C4.53874 1.67671 4.93159 1.5 5.39277 1.5H10.3603C10.8044 1.5 11.1887 1.67671 11.5132 2.03013C11.8377 2.38356 12 2.80208 12 3.28571C12 3.42756 11.9237 3.82959 11.9237 3.82959L10.0937 4.40978L10.297 3.28571H5.46099L6.07491 6.87109L11.6892 5.11111C11.6892 5.11111 10.5421 11.7067 10.4563 12.2143C10.3706 12.7218 10.277 13.1443 9.95246 13.4978C9.62792 13.8326 9.24361 14 8.79951 14H6.95352Z" fill="white"/>
</svg>
