<svg width="24" height="24" viewBox="0 0 24 24" fill="none" xmlns="http://www.w3.org/2000/svg">
<path fill-rule="evenodd" clip-rule="evenodd" d="M12.0693 6.80028C10.0599 6.80028 8.2439 7.67736 6.94019 9.09522C6.66161 9.3982 6.20994 9.45524 5.89861 9.19074L4.78471 8.24438C4.47338 7.97988 4.42087 7.49501 4.69129 7.18379C6.52424 5.07437 9.15171 3.75006 12.0693 3.75006C14.9869 3.75006 17.6144 5.07437 19.4473 7.18379C19.7178 7.49501 19.6652 7.97988 19.3539 8.24438L18.24 9.19074C17.9287 9.45524 17.477 9.3982 17.1984 9.09522C15.8947 7.67736 14.0787 6.80028 12.0693 6.80028Z" fill="#5195FC"/>
<path fill-rule="evenodd" clip-rule="evenodd" d="M11.5899 10.3916C11.8721 10.0896 12.3315 10.0896 12.6137 10.3916L17.1124 15.2056L21.2477 10.7804C21.5299 10.4785 21.9893 10.4785 22.2715 10.7804L23.0403 11.603C23.3198 11.9022 23.3198 12.3852 23.0403 12.6844L17.6243 18.48C17.3421 18.782 16.8827 18.782 16.6005 18.48L12.1018 13.666L7.56235 18.5236C7.28017 18.8256 6.82071 18.8256 6.53853 18.5236L0.959627 12.5536C0.680043 12.2545 0.680043 11.7714 0.959628 11.4723L1.72837 10.6496C2.01054 10.3477 2.47001 10.3477 2.75219 10.6496L7.05044 15.2492L11.5899 10.3916Z" fill="#5195FC"/>
</svg>
