<svg width="165" height="60" viewBox="0 0 165 60" fill="none" xmlns="http://www.w3.org/2000/svg">
<path d="M69.9338 50.3403V53.6944C69.9338 55.8981 68.5939 57 65.914 57H57.9229C55.3076 57 54 55.8495 54 53.5486V39.6944C54 37.3287 55.3076 36.1458 57.9229 36.1458H65.914C68.5939 36.1458 69.9338 37.2801 69.9338 39.5486V41.8819C69.7723 42.8542 69.0782 43.8264 67.8512 44.7986C67.3669 45.1875 67.1248 45.6088 67.1248 46.0625C67.1248 46.4838 67.3508 46.9051 67.8028 47.3264C69.0943 48.5255 69.8046 49.5301 69.9338 50.3403ZM65.4781 49.0278L64.0736 47.9583C63.7185 47.6991 63.3472 47.4884 62.9597 47.3264C62.5723 47.1644 62.2171 47.0833 61.8942 47.0833H60.2476C58.3426 47.0833 57.3902 48.2338 57.3902 50.5347V52.5764C57.3902 54.3264 58.3588 55.2014 60.296 55.2014H64.1221C65.7364 55.2014 66.5436 54.4074 66.5436 52.8194V50.6806C66.5436 50.4537 66.4306 50.2106 66.2046 49.9514C66.0109 49.6597 65.7687 49.3518 65.4781 49.0278ZM65.4781 43.2431C65.7687 42.9514 66.0109 42.6273 66.2046 42.2708C66.4306 41.9144 66.5436 41.4769 66.5436 40.9583V39.8889C66.5436 38.6574 65.7364 38.0417 64.1221 38.0417H60.296C58.3588 38.0417 57.3902 39.2083 57.3902 41.5417V42.3681C57.3902 44.2801 58.3103 45.2361 60.1507 45.2361H61.8942C62.2494 45.2361 62.6046 45.1713 62.9597 45.0417C63.3472 44.912 63.7185 44.7014 64.0736 44.4097L65.4781 43.2431Z" fill="white"/>
<path d="M81.2538 55.2014H89.1964C90.2296 55.2014 90.7462 55.5093 90.7462 56.125C90.7462 56.7083 90.2458 57 89.2449 57H78.7353C76.1201 57 74.8124 55.9306 74.8124 53.7917V39.4514C74.8124 37.2477 76.1201 36.1458 78.7353 36.1458H89.2449C90.2458 36.1458 90.7462 36.4537 90.7462 37.0694C90.7462 37.7176 90.2296 38.0417 89.1964 38.0417H81.2538C79.2197 38.0417 78.2026 38.8843 78.2026 40.5694V42.6597C78.2026 44.3773 79.1874 45.2361 81.1569 45.2361H89.148C90.2135 45.2361 90.7462 45.5116 90.7462 46.0625C90.7462 46.7431 90.2296 47.0833 89.1964 47.0833H81.1569C79.1874 47.0833 78.2026 47.9421 78.2026 49.6597V52.7708C78.2026 54.3912 79.2197 55.2014 81.2538 55.2014Z" fill="white"/>
<path d="M103.743 38.0417H100.45C98.5129 38.0417 97.5443 39.0625 97.5443 41.1042V42.9514C97.5443 44.8958 98.4968 45.8681 100.402 45.8681H103.84C105.745 45.8681 106.698 44.669 106.698 42.2708V40.4722C106.698 38.8519 105.713 38.0417 103.743 38.0417ZM106.698 54.375V50.0972C106.698 48.5093 105.713 47.7153 103.743 47.7153H100.45C98.5129 47.7153 97.5443 48.5093 97.5443 50.0972V54.4236C97.5443 56.1088 96.9793 56.9514 95.8492 56.9514C94.7192 56.9514 94.1542 56.1898 94.1542 54.6667V39.6458C94.1542 37.3125 95.3327 36.1458 97.6896 36.1458H106.068C108.748 36.1458 110.088 37.3125 110.088 39.6458V54.6181C110.088 56.1736 109.523 56.9514 108.393 56.9514C107.263 56.9514 106.698 56.0926 106.698 54.375Z" fill="white"/>
<path d="M124.459 49.9514C123.361 49.9514 122.812 49.0926 122.812 47.375C122.812 46.338 122.57 45.2037 122.086 43.9722C121.634 42.7083 120.988 41.3958 120.149 40.0347C119.858 39.6134 119.584 39.3056 119.325 39.1111C119.067 38.9167 118.873 38.8032 118.744 38.7708C118.454 38.7708 118.308 39.0463 118.308 39.5972V54.6181C118.308 56.1736 117.727 56.9514 116.565 56.9514C115.435 56.9514 114.87 56.1736 114.87 54.6181V39.5486C114.87 37.1829 115.806 36 117.679 36H118.599C119.826 36 120.956 36.7778 121.989 38.3333L124.411 42.4167L126.881 38.3333C127.333 37.6204 127.817 37.0532 128.334 36.6319C128.882 36.2106 129.512 36 130.222 36H131.239C133.08 36 134 37.1829 134 39.5486V54.6181C134 56.1736 133.435 56.9514 132.305 56.9514C131.175 56.9514 130.61 56.1736 130.61 54.6181V39.5972C130.481 39.0463 130.303 38.7708 130.077 38.7708C129.722 38.7708 129.27 39.1921 128.721 40.0347C127.849 41.3958 127.204 42.7083 126.784 43.9722C126.364 45.2037 126.154 46.338 126.154 47.375C126.154 49.0926 125.589 49.9514 124.459 49.9514Z" fill="white"/>
<path d="M58.1142 17.9773C55.3714 17.9773 54 16.9114 54 14.7795V10.5318C54 8.33636 55.2917 7.23864 57.875 7.23864H67.8258C69.1015 7.23864 69.7394 7.57273 69.7394 8.24091C69.7394 8.81364 69.1015 9.1 67.8258 9.1H60.0278C58.2418 9.1 57.3488 10.0545 57.3488 11.9636V13.1568C57.3488 15.1614 58.2259 16.1636 59.98 16.1636H65.6251C68.3679 16.1636 69.7394 17.2295 69.7394 19.3614V24.5159C69.7394 26.6477 68.4158 27.7136 65.7686 27.7136H55.8658C54.6219 27.7136 54 27.4114 54 26.8068C54 26.2341 54.6379 25.9477 55.9136 25.9477H63.8072C65.5294 25.9477 66.3906 25.1045 66.3906 23.4182V21.175C66.3906 19.0432 65.4816 17.9773 63.6637 17.9773H58.1142Z" fill="white"/>
<path d="M86.8534 23.3705C86.8534 23.0523 86.9809 22.7818 87.2361 22.5591C87.4912 22.3364 87.9218 22.225 88.5278 22.225C89.644 22.225 90.2022 22.7341 90.2022 23.7523V24.5636C90.2022 26.6636 88.9902 27.7136 86.5663 27.7136H77.9551C75.6269 27.7136 74.4628 26.5841 74.4628 24.325V10.7227C74.4628 8.4 75.6429 7.23864 78.003 7.23864H86.5663C88.9902 7.23864 90.2022 8.28864 90.2022 10.3886V11.1045C90.2022 12.25 89.644 12.8227 88.5278 12.8227C87.4115 12.8227 86.8534 12.4568 86.8534 11.725C86.8534 9.975 85.8806 9.1 83.9351 9.1H80.682C78.7684 9.1 77.8116 9.92727 77.8116 11.5818V23.5136C77.8116 25.1364 78.7525 25.9477 80.6342 25.9477H84.0308C85.9125 25.9477 86.8534 25.0886 86.8534 23.3705Z" fill="white"/>
<path d="M101.145 25.9477H104.494C106.407 25.9477 107.364 25.0091 107.364 23.1318V11.8205C107.364 10.0068 106.391 9.1 104.446 9.1H101.193C99.2791 9.1 98.3223 10.0068 98.3223 11.8205V23.2273C98.3223 25.0409 99.2631 25.9477 101.145 25.9477ZM110.713 24.4682C110.713 26.6318 109.421 27.7136 106.838 27.7136H98.8485C96.2651 27.7136 94.9735 26.6318 94.9735 24.4682V10.5795C94.9735 8.35227 96.2651 7.23864 98.8485 7.23864H106.79C109.405 7.23864 110.713 8.35227 110.713 10.5795V24.4682Z" fill="white"/>
<path d="M113.618 8.14546C113.618 7.54091 114.176 7.23864 115.293 7.23864H127.492C128.64 7.23864 129.214 7.54091 129.214 8.14546C129.214 8.78182 128.624 9.1 127.444 9.1H125.77C123.952 9.1 123.043 9.92727 123.043 11.5818V25.5182C123.043 27.1727 122.485 28 121.368 28C120.284 28 119.742 27.1727 119.742 25.5182V11.5818C119.742 9.92727 118.833 9.1 117.015 9.1H115.436C114.224 9.1 113.618 8.78182 113.618 8.14546Z" fill="white"/>
<path d="M130.531 8.14546C130.531 7.54091 131.089 7.23864 132.205 7.23864H144.404C145.552 7.23864 146.126 7.54091 146.126 8.14546C146.126 8.78182 145.536 9.1 144.356 9.1H142.682C140.864 9.1 139.955 9.92727 139.955 11.5818V25.5182C139.955 27.1727 139.397 28 138.281 28C137.196 28 136.654 27.1727 136.654 25.5182V11.5818C136.654 9.92727 135.745 9.1 133.927 9.1H132.348C131.137 9.1 130.531 8.78182 130.531 8.14546Z" fill="white"/>
<path d="M159.02 25.9477C160.742 25.9477 161.603 25.1205 161.603 23.4659V20.7455C161.603 19.0909 160.694 18.2636 158.876 18.2636H152.944C150.457 18.2636 149.213 17.2614 149.213 15.2568V9.05227C149.213 7.68409 149.771 7 150.887 7C152.003 7 152.562 7.71591 152.562 9.14773V13.8727C152.562 15.5591 153.502 16.4023 155.384 16.4023H158.781C160.663 16.4023 161.603 15.5591 161.603 13.8727V9.14773C161.603 7.71591 162.161 7 163.278 7C164.426 7 165 7.7 165 9.1L164.952 24.6114C164.92 26.6795 163.676 27.7136 161.221 27.7136H150.6C149.675 27.7136 149.213 27.4114 149.213 26.8068C149.213 26.2341 149.707 25.9477 150.696 25.9477H159.02Z" fill="white"/>
<path d="M15.5322 60C13.2962 60 11.3914 59.1964 9.81793 57.5893C8.32726 55.8929 7.8873 53.7344 7.4991 51.4286L6.74244 47.1354L14.1516 43.138L15.5681 51.4286H24.4428L28.4161 28.5052L5.27054 38.5714L0.0797534 8.57143C-0.306907 6.17436 0.76 4.24107 2.25068 2.54464C3.82417 0.848215 5.72892 0 7.96494 0H32.0497C34.2029 0 36.0663 0.848215 37.6398 2.54464C39.2132 4.24107 40 6.25 40 8.57143C40 9.25228 39.6302 11.182 39.6302 11.182L30.7573 13.967L31.7432 8.57143H8.29571L11.2723 25.7812L38.493 17.3333C38.493 17.3333 32.9314 48.9924 32.5156 51.4286C32.0998 53.8648 31.646 55.8929 30.0725 57.5893C28.499 59.1964 26.6357 60 24.4825 60H15.5322Z" fill="white"/>
</svg>
