<svg width="24" height="24" viewBox="0 0 24 24" fill="none" xmlns="http://www.w3.org/2000/svg">
<path d="M4 11.9999L5.59999 10.4L7.19999 11.9999L5.6 13.5999L4 11.9999Z" fill="#FE9800"/>
<path d="M10.4 11.9999L12 10.4L13.6 11.9999L12 13.5999L10.4 11.9999Z" fill="#FE9800"/>
<path d="M7.19998 15.1999L8.79998 13.5999L10.4 15.1999L8.79998 16.7999L7.19998 15.1999Z" fill="#FE9800"/>
<path d="M8.79998 16.7999L10.4 15.1999L12.0001 16.8L10.4001 18.4L8.79998 16.7999Z" fill="#FE9800"/>
<path d="M10.4001 18.4L12.0001 16.8L13.6 18.3999L12 19.9999L10.4001 18.4Z" fill="#FE9800"/>
<path d="M12.0001 16.8L13.6001 15.2L15.2001 16.8L13.6 18.3999L12.0001 16.8Z" fill="#FE9800"/>
<path d="M13.6001 15.2L15.1999 13.5999L16.7999 15.1999L15.2001 16.8L13.6001 15.2Z" fill="#FE9800"/>
<path d="M16.7999 8.79996L15.1999 10.4L13.5999 8.79996L15.1999 7.19997L16.7999 8.79996Z" fill="#FE9800"/>
<path d="M15.1999 7.19997L13.5999 8.79996L12.0001 7.19997L13.6001 5.59998L15.1999 7.19997Z" fill="#FE9800"/>
<path d="M13.6001 5.59998L12.0001 7.19997L10.4 5.59998L12 3.99998L13.6001 5.59998Z" fill="#FE9800"/>
<path d="M12.0001 7.19997L10.4001 8.79997L8.80009 7.19997L10.4 5.59998L12.0001 7.19997Z" fill="#FE9800"/>
<path d="M10.4001 8.79997L8.79997 10.4L7.19998 8.79996L8.80009 7.19997L10.4001 8.79997Z" fill="#FE9800"/>
<path d="M16.7999 11.9999L18.3999 10.4L19.9999 11.9999L18.3999 13.5999L16.7999 11.9999Z" fill="#FE9800"/>
</svg>
