<svg width="24" height="24" viewBox="0 0 24 24" fill="none" xmlns="http://www.w3.org/2000/svg">
<path d="M21.4329 16.0437L20.1564 20.1825L17.6504 19.5253L21.4329 16.0437Z" fill="#E4761B"/>
<path d="M17.6504 19.5253L20.0674 16.3497L21.4329 16.0437L17.6504 19.5253Z" fill="#E4761B"/>
<path d="M19.5546 12.923L21.4327 16.0434L20.0673 16.3495L19.5546 12.923ZM19.5546 12.923L20.7631 12.1204L21.4327 16.0434L19.5546 12.923Z" fill="#F6851B"/>
<path d="M18.0165 10.5652L21.4903 9.20068L21.3177 9.94818L18.0165 10.5652ZM21.2078 10.8462L18.0165 10.5652L21.3177 9.94818L21.2078 10.8462Z" fill="#763D16"/>
<path d="M21.2078 10.8462L20.7631 12.1204L18.0165 10.5652L21.2078 10.8462ZM21.9036 9.51674L21.3177 9.94818L21.4903 9.20068L21.9036 9.51674ZM21.2078 10.8462L21.3177 9.94818L21.7833 10.3194L21.2078 10.8462Z" fill="#763D16"/>
<path d="M14.9561 18.5169L15.8246 18.7828L17.6504 19.5253L14.9561 18.5169Z" fill="#E2761B"/>
<path d="M20.7633 12.1204L21.208 10.8462L21.5899 11.1271L20.7633 12.1204ZM20.7633 12.1204L17.1587 10.9816L18.0167 10.5652L20.7633 12.1204Z" fill="#763D16"/>
<path d="M18.8747 6.65717L18.0167 10.5652L17.1587 10.9816L18.8747 6.65717Z" fill="#763D16"/>
<path d="M21.4903 9.20064L18.0165 10.5652L18.8745 6.65717L21.4903 9.20064Z" fill="#763D16"/>
<path d="M18.8744 6.65714L22.5 6.2558L21.4902 9.20061L18.8744 6.65714Z" fill="#763D16"/>
<path d="M20.7633 12.1203L19.5548 12.923L17.1587 10.9815L20.7633 12.1203Z" fill="#F6851B"/>
<path d="M22.343 3.44135L22.5 6.25573L18.8744 6.65707L22.343 3.44135Z" fill="#763D16"/>
<path d="M22.3433 3.44135L15.0973 8.49318L15.0032 5.06676L22.3433 3.44135Z" fill="#E2761B"/>
<path d="M9.61432 4.65552L15.003 5.06689L15.0971 8.49331L9.61432 4.65552Z" fill="#F6851B"/>
<path d="M17.1585 10.9816L15.0972 8.49329L18.8745 6.65717L17.1585 10.9816Z" fill="#763D16"/>
<path d="M17.1583 10.9815L19.5544 12.923L16.1904 13.2792L17.1583 10.9815Z" fill="#E4761B"/>
<path d="M16.1906 13.2793L15.0972 8.49335L17.1585 10.9816L16.1906 13.2793Z" fill="#E4761B"/>
<path d="M18.8745 6.65706L15.0972 8.49318L22.3431 3.44135L18.8745 6.65706Z" fill="#763D16"/>
<path d="M9.66129 19.4448L11.3721 21.1555L9.04395 19.1237L9.66129 19.4448Z" fill="#C0AD9E"/>
<path d="M17.6504 19.5251L18.4613 16.5702L20.0674 16.3495L17.6504 19.5251Z" fill="#CD6116"/>
<path d="M2.72406 11.2124L5.68521 8.22742L3.10597 10.8562L2.72406 11.2124Z" fill="#E2761B"/>
<path d="M20.0673 16.3495L18.4611 16.5702L19.5546 12.9231L20.0673 16.3495ZM15.0971 8.49331L12.2145 8.40301L9.61432 4.65552L15.0971 8.49331Z" fill="#F6851B"/>
<path d="M19.5548 12.9231L18.4614 16.5703L18.3724 14.7893L19.5548 12.9231Z" fill="#E4751F"/>
<path d="M16.1904 13.2793L19.5544 12.9231L18.3721 14.7893L16.1904 13.2793Z" fill="#CD6116"/>
<path d="M12.2145 8.40308L15.0971 8.49338L16.1906 13.2793L12.2145 8.40308Z" fill="#F6851B"/>
<path d="M12.2145 8.40304L4.43499 1.50003L9.61438 4.65555L12.2145 8.40304ZM9.60915 20.4933L2.84978 22.5L1.5 17.5586L9.60915 20.4933Z" fill="#E4761B"/>
<path d="M3.72858 12.4464L6.28165 10.525L8.42142 11.0016L3.72858 12.4464Z" fill="#763D16"/>
<path d="M8.42157 11.0016L6.2818 10.525L7.42754 5.98993L8.42157 11.0016Z" fill="#763D16"/>
<path d="M3.10602 10.8561L6.28167 10.525L3.72859 12.4464L3.10602 10.8561Z" fill="#763D16"/>
<path d="M18.3721 14.7893L17.0537 14.1522L16.1904 13.2793L18.3721 14.7893Z" fill="#CD6116"/>
<path d="M3.10631 10.8562L2.88135 9.71741L6.28196 10.5251L3.10631 10.8562Z" fill="#763D16"/>
<path d="M16.7818 15.5871L17.0538 14.1523L18.3722 14.7894L16.7818 15.5871Z" fill="#233447"/>
<path d="M18.4612 16.5703L16.7818 15.587L18.3722 14.7894L18.4612 16.5703Z" fill="#F6851B"/>
<path d="M6.28183 10.525L2.88122 9.71735L2.60394 8.75916L6.28183 10.525ZM7.42758 5.98993L6.28183 10.525L2.60394 8.75916L7.42758 5.98993ZM7.42758 5.98993L12.2146 8.40297L8.4216 11.0016L7.42758 5.98993Z" fill="#763D16"/>
<path d="M8.42139 11.0017L12.2144 8.40308L13.9042 13.3546L8.42139 11.0017ZM13.9042 13.3546L8.66205 13.2492L8.42139 11.0017L13.9042 13.3546Z" fill="#E4761B"/>
<path d="M3.72858 12.4466L8.42142 11.0017L8.66208 13.2492L3.72858 12.4466ZM16.1905 13.2793L13.9043 13.3546L12.2144 8.40308L16.1905 13.2793Z" fill="#F6851B"/>
<path d="M17.0537 14.1522L16.7816 15.587L16.1904 13.2793L17.0537 14.1522Z" fill="#CD6116"/>
<path d="M4.43518 1.50003L12.2147 8.40304L7.42772 5.99L4.43518 1.50003Z" fill="#763D16"/>
<path d="M1.5 17.5585L8.06056 17.2977L9.60915 20.4933L1.5 17.5585Z" fill="#E4761B"/>
<path d="M9.60895 20.4932L8.06036 17.2976L11.2831 17.1471L9.60895 20.4932Z" fill="#CD6116"/>
<path d="M16.7818 15.5869L18.4612 16.5702L19.3872 18.6622L16.7818 15.5869ZM8.66221 13.2491L1.5 17.5585L3.72871 12.4464L8.66221 13.2491ZM8.06056 17.2976L1.5 17.5585L8.66221 13.2491L8.06056 17.2976ZM16.1906 13.2792L16.6196 14.7742L14.5479 14.8896L16.1906 13.2792ZM14.5479 14.8896L13.9044 13.3545L16.1906 13.2792L14.5479 14.8896Z" fill="#F6851B"/>
<path d="M11.3723 21.1554L9.60919 20.4932L15.7408 21.4815L11.3723 21.1554Z" fill="#C0AD9E"/>
<path d="M3.72855 12.4465L2.72406 11.2124L3.10597 10.8562L3.72855 12.4465Z" fill="#763D16"/>
<path d="M16.4366 20.7491L15.7408 21.4815L9.60919 20.4932L16.4366 20.7491Z" fill="#D7C1B3"/>
<path d="M16.7662 18.9531L9.60919 20.4932L11.2833 17.1471L16.7662 18.9531Z" fill="#E4761B"/>
<path d="M9.60919 20.4932L16.7662 18.9531L16.4366 20.7491L9.60919 20.4932Z" fill="#D7C1B3"/>
<path d="M2.60402 8.7591L2.36859 4.90125L7.42765 5.98987L2.60402 8.7591ZM3.10626 10.8561L2.41044 10.1788L2.8813 9.7173L3.10626 10.8561Z" fill="#763D16"/>
<path d="M12.7323 14.3477L13.9042 13.3544L13.7368 15.7825L12.7323 14.3477Z" fill="#CD6116"/>
<path d="M13.9042 13.3544L12.7323 14.3477L11.0268 15.1955L13.9042 13.3544Z" fill="#CD6116"/>
<path d="M19.3872 18.6621L19.0681 18.4363L16.7818 15.5868L19.3872 18.6621Z" fill="#F6851B"/>
<path d="M11.0271 15.1958L8.66241 13.2493L13.9046 13.3547L11.0271 15.1958Z" fill="#CD6116"/>
<path d="M13.7368 15.7825L13.9042 13.3544L14.5477 14.8895L13.7368 15.7825Z" fill="#E4751F"/>
<path d="M2.18024 9.14067L2.60401 8.7594L2.88129 9.71759L2.18024 9.14067Z" fill="#763D16"/>
<path d="M13.7368 15.7826L11.0268 15.1956L12.7323 14.3478L13.7368 15.7826Z" fill="#233447"/>
<path d="M7.42765 5.99L2.36859 4.90137L4.43512 1.50003L7.42765 5.99Z" fill="#763D16"/>
<path d="M15.7409 21.4816L16.0287 22.2341L11.3724 21.1555L15.7409 21.4816Z" fill="#C0AD9E"/>
<path d="M11.2831 17.1471L11.0268 15.1956L13.7368 15.7825L11.2831 17.1471Z" fill="#F6851B"/>
<path d="M8.66241 13.2493L11.0271 15.1958L11.2835 17.1473L8.66241 13.2493Z" fill="#E4751F"/>
<path d="M14.5477 14.8898L16.6194 14.7744L19.0679 18.4366L14.5477 14.8898ZM8.66201 13.2493L11.2831 17.1473L8.06036 17.2978L8.66201 13.2493Z" fill="#F6851B"/>
<path d="M14.5477 14.8896L17.1217 18.6471L13.7368 15.7826L14.5477 14.8896Z" fill="#E4751F"/>
<path d="M13.7368 15.7826L17.1217 18.6471L16.766 18.9532L13.7368 15.7826Z" fill="#F6851B"/>
<path d="M16.766 18.9531L11.2831 17.1471L13.7368 15.7826L16.766 18.9531ZM19.0679 18.4364L17.1217 18.6471L14.5477 14.8896L19.0679 18.4364Z" fill="#F6851B"/>
<path d="M19.5806 20.2024L18.7435 21.8127L16.0283 22.2341L19.5806 20.2024ZM16.0283 22.2341L15.7405 21.4816L16.4364 20.7492L16.0283 22.2341Z" fill="#C0AD9E"/>
<path d="M16.4366 20.7492L16.9493 20.5535L16.0286 22.2341L16.4366 20.7492ZM16.0286 22.2341L16.9493 20.5535L19.5809 20.2024L16.0286 22.2341Z" fill="#C0AD9E"/>
<path d="M19.0682 18.4365L19.7117 18.8127L17.7551 19.0385L19.0682 18.4365Z" fill="#161616"/>
<path d="M17.7549 19.0385L17.1218 18.6472L19.068 18.4365L17.7549 19.0385ZM17.5299 19.3345L19.9103 19.0586L19.5807 20.2024L17.5299 19.3345Z" fill="#161616"/>
<path d="M19.5808 20.2022L16.9493 20.5534L17.53 19.3344L19.5808 20.2022ZM16.9493 20.5534L16.4366 20.7491L16.7662 18.9531L16.9493 20.5534ZM16.7662 18.9531L17.1219 18.6471L17.755 19.0384L16.7662 18.9531ZM19.7116 18.8126L19.9104 19.0584L17.53 19.3344L19.7116 18.8126Z" fill="#161616"/>
<path d="M17.5298 19.3344L17.7548 19.0384L19.7114 18.8126L17.5298 19.3344ZM16.766 18.9531L17.5298 19.3344L16.9491 20.5534L16.766 18.9531Z" fill="#161616"/>
<path d="M17.7548 19.0383L17.5298 19.3343L16.766 18.9531L17.7548 19.0383Z" fill="#161616"/>
</svg>
