<svg width="166" height="294" viewBox="0 0 166 294" fill="none" xmlns="http://www.w3.org/2000/svg">
<path d="M132.073 279.247C128.109 269.999 112.628 266.166 109.799 266.166C109.799 266.166 103.898 264.733 102.398 270.233C100.898 275.733 104.006 277.679 106.016 278.701C108.026 279.724 110.689 280.332 114.238 280.839C117.787 281.346 121.851 283.167 126.063 283.136C131.049 283.1 132.679 280.66 132.073 279.247Z" fill="#FAB5A5"/>
<path d="M31.1374 271.043C36.5005 267.181 40.1632 266.482 42.5975 265.942C47.642 264.825 49.5373 263.441 52.2039 267.143C54.8705 270.846 53.3092 276.345 49.7353 277.564C46.1615 278.783 43.1546 279.379 39.762 281.121C32.8957 284.648 26.0333 286.647 23.8904 283.672C22.0463 281.111 26.5702 274.332 31.1374 271.043Z" fill="#FAB5A5"/>
<path d="M158.5 132C165 120.345 160.273 94.275 158.5 86C157 79 147.585 73.1924 144.301 73.1924C141.018 73.1924 145.642 83.9865 146 88.5C148.5 120 146 124.5 117.5 130L132 162.5C137 152.5 154.885 138.482 158.5 132Z" fill="#E1A44F"/>
<path d="M132 162.5C137 152.5 154.885 138.482 158.5 132C164.443 121.344 161.001 98.6385 159.012 88.5C157 92 150.5 93 146.154 90.5C148.38 120.195 145.386 124.619 117.5 130L132 162.5Z" fill="#A91735"/>
<path d="M31.415 122.846C32.0192 121.905 33.2277 120.024 36.5853 116.865C40.9907 113.317 50.7453 107.729 77.0362 110.16C103.327 112.59 111.812 123.461 115.36 127.866C118.909 132.272 122.141 136.658 128.273 150.582C134.405 164.506 136.031 183.4 138.225 195.706C140.363 207.693 147.773 223.614 142.476 244.944C139.294 257.755 124.933 266.188 116.769 268.828C97.3583 276.292 77.4551 275.07 56.097 271.847C32.5603 268.295 17.1727 259.543 10.2174 240.251C4.33213 223.927 7.37884 205.916 9.63785 198.951C11.3462 192.43 13.8899 178.153 14.4112 173.315C15.5894 162.378 19.2889 148.223 20.661 143.312C22.2978 137.453 30.8108 123.787 31.415 122.846Z" fill="#E1A44F" stroke="#886C31"/>
<path d="M106.351 160.139C123.363 161.972 116.659 191.495 125.153 217.554C135.42 249.048 111.863 265.782 97.853 267.028C83.8429 268.275 65.0423 268.834 56.5391 249.067C50.7635 235.641 55.6733 220.586 60.7229 200.897C66.7929 177.229 84.8729 157.825 106.351 160.139Z" fill="#EFC15F"/>
<path d="M31.0096 122.457C31.6139 121.516 33.0647 119.294 36.4223 116.136C40.8277 112.587 50.7452 107.729 77.0362 110.16C103.327 112.59 112.264 123.344 115.812 127.749C119.361 132.155 121.687 134.494 128.53 150.052C135.372 165.609 136.506 183.271 138.7 195.577C139.304 198.965 139.799 200.364 140.839 204.414C140.839 210.833 136.062 220.458 109.03 225.116C83.6525 229.489 16.6714 223.284 9.21485 198.455C10.9232 191.934 13.3363 178.117 13.8575 173.279C15.0357 162.343 18.9437 147.27 20.3158 142.359C21.9296 136.582 30.1694 123.764 30.9796 122.503L31.0096 122.457Z" fill="#A91735"/>
<path d="M117.345 128.968C123.049 136.532 129.556 148.219 132.671 161.381" stroke="url(#paint0_linear)"/>
<path d="M112.273 168.952C111.735 168.952 111.277 168.765 110.898 168.389C110.54 167.993 110.434 167.488 110.341 166.949L110.159 165.946L111.941 165.012L112.281 166.949L114.176 166.41L115.131 161.053L109.805 163.944L108.556 156.933C108.463 156.373 108.72 155.921 109.078 155.525C109.457 155.128 109.915 154.93 110.453 154.93L116.005 154.391C116.523 154.391 116.971 154.589 117.35 154.985C117.728 155.382 117.918 155.851 117.918 156.394L115.74 157.395L115.932 156.394L110.532 156.933L111.248 160.955L117.555 158.442C117.555 158.442 116.217 165.841 116.117 166.41C116.017 166.979 115.908 167.453 115.53 167.85C115.151 168.225 114.703 168.413 114.185 168.413L112.273 168.952Z" fill="url(#paint1_radial)"/>
<path d="M53.87 137.954C39.435 132.748 33.9581 123.142 33.9581 118.814C35.1612 117.073 35.7077 116.924 36.6553 115.718L115.486 127.268C115.866 127.729 116.926 128.94 116.926 128.94C113.948 138.226 104.482 139.034 93.6559 156.525C93.6559 156.525 81.3962 147.881 53.87 137.954Z" fill="black"/>
<path d="M19.1338 195.694C20.0058 192.267 19.8356 186.825 19.3178 184.65C20.1703 185.606 21.3536 186.896 24.6049 187.195C27.82 187.491 29.9265 186.53 31.4003 185.281C30.817 186.489 30.5253 189.091 30.5253 190.656C30.5253 194.768 31.3781 198.966 30.5253 200.906L29.321 202.481C29.9647 205.989 30.9182 209.141 28.7316 209.3C17.5806 210.11 18.0126 200.099 19.1338 195.694Z" fill="#EFC15F"/>
<path d="M29.1833 195.77C28.7726 197.726 28.896 200.164 29.321 202.481M29.321 202.481C29.9647 205.989 30.9182 209.141 28.7316 209.3C17.5806 210.11 18.0126 200.099 19.1338 195.694C20.0058 192.267 19.8356 186.825 19.3178 184.65C20.1703 185.606 21.3536 186.896 24.6049 187.195C27.82 187.491 29.9265 186.53 31.4003 185.281C30.817 186.489 30.5253 189.091 30.5253 190.656C30.5253 194.768 31.3781 198.966 30.5253 200.906L29.321 202.481Z" stroke="#EFC15F"/>
<path opacity="0.7" d="M35.2419 174.543C36.5836 169.272 40.5952 158.689 49.7961 152.64C52.9722 151.591 59.2585 156.27 52.308 160.007C45.3574 163.745 43.4794 162.936 39.4661 169.635C35.6228 176.051 34.574 181.612 33.072 181.884C31.8704 182.102 33.4476 180.162 33.6563 179.542C34.2761 177.724 34.8637 176.029 35.2419 174.543Z" fill="#7D0B22"/>
<path d="M24.4165 134.915C21.1553 141.114 18.3125 151.105 17.7921 160.604C17.2716 170.103 17.1849 176.436 19.1984 184.894C19.7162 187.069 19.8864 192.512 19.0143 195.938C17.8932 200.343 17.4612 210.354 28.6121 209.544C32.2426 209.28 28.0312 200.932 29.0639 196.015" stroke="url(#paint2_linear)"/>
<path d="M49.3484 152.437C40.1475 158.486 36.1359 169.068 34.7943 174.34C33.4526 179.611 29.4773 187.51 30.7695 194.187C31.7052 199.022 30.9069 202.248 29.8055 203.135" stroke="url(#paint3_linear)"/>
<path d="M24.4166 134.915C21.1554 141.114 18.3125 151.105 17.7921 160.604C17.2827 169.9 17.1888 176.164 19.0724 184.356" stroke="url(#paint4_linear)"/>
<path d="M49.3484 152.437C40.1475 158.486 36.1359 169.068 34.7943 174.34C34.0642 177.208 32.5543 180.855 31.5376 184.659" stroke="url(#paint5_linear)"/>
<path d="M120.978 34.3993C127.763 35.1303 129.404 39.4818 129.377 41.5662C122.15 46.4004 107.609 54.5111 107.254 48.28C106.812 40.4911 112.497 33.4857 120.978 34.3993Z" fill="#E1A44F" stroke="#886C31"/>
<path d="M45.3501 32.886C39.7896 32.2869 37.0178 36.2741 36.8046 38.2536C42.8356 44.5161 55.3161 55.538 56.9894 49.5253C58.9601 42.444 53.7173 33.7874 45.3501 32.886Z" fill="#E1A44F" stroke="#886C31"/>
<path d="M129.369 41.6392C128.326 51.3165 117.994 55.1281 114.111 55.241C111.063 53.2431 110.917 51.7854 109.972 50.697C111.466 34.3607 125.681 35.019 129.369 41.6392Z" fill="#EFC15F" stroke="#886C31"/>
<path d="M36.6881 37.9528C34.774 46.0235 46.7836 52.6477 50.6631 53.5719C54.0667 52.269 53.1622 51.4553 54.3175 50.5932C54.9278 36.9715 41.9221 32.3827 36.6881 37.9528Z" fill="#EFC15F" stroke="#886C31"/>
<path d="M81.3007 138.866C97.5649 140.618 113.1 130.88 114.317 127.692C107.536 129.29 91.8969 132.483 79.6127 131.719C67.3285 130.955 46.9873 121.408 37.7919 116.778C39.2489 119.468 44.7779 134.931 81.3007 138.866Z" fill="#BA8740"/>
<path d="M123.011 70.8578C123.63 84.5026 132.895 91.1344 131.3 105.948C128.568 131.304 94.7888 136.714 74.9092 134.572C32.1565 129.966 29.9144 104.538 32.0356 93.7448C34.6088 80.6516 43.5221 79.9344 48.6988 59.3078C52.1237 45.6609 66.7985 37.1428 87.1805 39.3386C109.928 41.7892 122.69 63.7827 123.011 70.8578Z" fill="#E1A44F" stroke="#886C31"/>
<path d="M32.5174 93.8194C35.0905 80.7261 44.0023 80.0779 49.179 59.4512C51.0613 51.9511 55.9511 46.3353 63.7093 42.8606C66.6335 41.5435 69.7162 40.8142 69.7162 40.8142C69.7162 40.8142 64.6506 42.962 61.7799 52.7709C57.9866 70.5636 46.3155 86.9882 48.8593 103.328C53.2765 131.702 92.555 135.933 75.0376 134.046C33.0244 129.52 30.3962 104.613 32.5174 93.8194Z" fill="#C99041"/>
<path d="M97.905 97.7193C95.4719 96.3106 93.9406 99.3357 93.1524 101.528C92.9056 102.214 92.0577 101.864 92.3531 101.209C92.8954 99.2554 94.4368 96.1241 96.6835 95.6218C97.6105 95.42 98.217 96.0146 98.8598 96.6772C100.186 98.0737 101.306 99.776 102.329 101.408C102.696 101.995 102.055 102.746 101.51 101.953C100.264 100.526 99.6135 98.7053 97.905 97.7193Z" fill="#88631E"/>
<path d="M95.8379 86.3699C91.5196 85.9047 90.4611 87.8059 90.4787 88.9175C90.5227 91.6977 95.2865 91.5131 96.6709 92.857C98.1494 91.4263 101.218 92.353 101.583 90.1138C101.892 88.2185 100.156 86.8351 95.8379 86.3699Z" fill="#956919"/>
<path d="M64.38 73.5934C63.7293 79.6336 68.173 85.0657 75.6299 85.869C83.5838 86.7259 87.1477 81.6536 87.7984 75.6134C88.4491 69.5733 83.6349 64.1013 77.0457 63.3914C70.4564 62.6815 65.0307 67.5532 64.38 73.5934Z" fill="white"/>
<path d="M64.38 73.5934C63.7293 79.6336 68.173 85.0657 75.6298 85.869C76.7572 85.9905 67.1457 86.6401 66.72 73.4285C67.3707 67.3884 83.6349 64.1013 77.0456 63.3914C70.4563 62.6815 65.0307 67.5532 64.38 73.5934Z" fill="#ECECEC"/>
<path d="M101.206 72.5318C100.569 78.4378 104.607 84.4648 111.905 85.251C119.69 86.0897 123.544 79.9071 124.18 74.0012C124.817 68.0952 119.716 63.9653 113.267 63.2705C106.818 62.5757 101.842 66.6259 101.206 72.5318Z" fill="white"/>
<path d="M101.206 72.5318C100.569 78.4378 104.607 84.4648 111.905 85.251C115.867 85.6779 102.536 85.8656 104.026 72.0323C104.662 66.1264 119.716 63.9652 113.267 63.2705C106.818 62.5757 101.842 66.6259 101.206 72.5318Z" fill="#ECECEC"/>
<circle cx="117.5" cy="75.5" r="1.5" fill="black"/>
<circle cx="82.5" cy="76.5005" r="1.5" fill="black"/>
<path d="M101.455 71.0672C111.29 73.1326 114.174 71.3913 124.171 71.9653C124.545 68.4855 120.338 63.9052 113.378 63.1554C108.904 62.6734 102.863 64.8118 101.455 71.0672Z" fill="#BA8740"/>
<path d="M118.258 66.372C119.838 68.489 119.533 72.099 124.171 71.9653C124.545 68.4854 120.338 63.9052 113.378 63.1554C108.904 62.6734 116.793 64.4082 118.258 66.372Z" fill="#CF984C"/>
<path d="M64.9216 71.1373C75.8584 72.3156 82.3176 74.0172 87.5566 72.0672C86.9372 68.4802 83.679 64.0911 76.7193 63.3413C72.2452 62.8593 66.505 65.7761 64.9216 71.1373Z" fill="#BA8740"/>
<path d="M81.2965 66.1672C83.389 68.5378 82.5076 72.3309 87.5566 72.0671C86.9372 68.4802 83.679 64.0911 76.7193 63.3413C72.2452 62.8593 79.2039 63.7966 81.2965 66.1672Z" fill="#C99C59"/>
<path d="M111.851 85.7481C104.267 84.9311 100.044 78.6476 100.709 72.4783C101.376 66.2839 106.611 62.0505 113.321 62.7734C116.63 63.1299 119.625 64.3705 121.721 66.3151C123.826 68.269 125.014 70.9293 124.678 74.0547C124.351 77.0865 123.197 80.2185 121.09 82.4949C118.968 84.7885 115.903 86.1846 111.851 85.7481Z" stroke="#88621C"/>
<path d="M75.5763 86.3662C67.8901 85.5381 63.198 79.8977 63.8829 73.5398C64.5615 67.2408 70.22 62.1531 77.0992 62.8942C83.9215 63.6292 88.9801 69.3124 88.2955 75.667C87.9622 78.7604 86.8778 81.6631 84.8018 83.6858C82.711 85.7228 79.6753 86.8078 75.5763 86.3662Z" stroke="#88621C"/>
<path d="M124.328 72.0017C114.332 71.4277 111.29 73.1325 101.455 71.0671" stroke="#88621C"/>
<path d="M87.5566 72.0672C82.3176 74.0172 75.5004 72.277 64.5637 71.0988" stroke="#88621C"/>
<mask id="mask0" mask-type="alpha" maskUnits="userSpaceOnUse" x="11" y="3" width="143" height="143">
<circle opacity="0.9" r="70.5102" transform="matrix(-1 8.88926e-08 8.88926e-08 1 82.5712 74.1349)" fill="url(#paint6_linear)" stroke="url(#paint7_linear)"/>
</mask>
<g mask="url(#mask0)">
<circle opacity="0.9" r="70.5102" transform="matrix(-1 8.88926e-08 8.88926e-08 1 82.5712 74.1349)" fill="url(#paint8_radial)" stroke="url(#paint9_linear)"/>
</g>
<circle opacity="0.9" r="70.5102" transform="matrix(-1 8.88926e-08 8.88926e-08 1 82.5712 74.1349)" stroke="url(#paint10_linear)"/>
<g opacity="0.6" filter="url(#filter0_f)">
<ellipse rx="13.3688" ry="4.29011" transform="matrix(-0.956667 -0.291183 -0.291183 0.956667 100.832 14.34)" fill="white"/>
</g>
<g opacity="0.6" filter="url(#filter1_f)">
<ellipse rx="7.71959" ry="4.29011" transform="matrix(0.241625 0.97037 0.97037 -0.241625 144.423 63.5285)" fill="white"/>
</g>
<defs>
<filter id="filter0_f" x="80.7938" y="0.342972" width="40.0775" height="27.994" filterUnits="userSpaceOnUse" color-interpolation-filters="sRGB">
<feFlood flood-opacity="0" result="BackgroundImageFix"/>
<feBlend mode="normal" in="SourceGraphic" in2="BackgroundImageFix" result="shape"/>
<feGaussianBlur stdDeviation="3" result="effect1_foregroundBlur"/>
</filter>
<filter id="filter1_f" x="132.395" y="49.0011" width="24.0565" height="29.0549" filterUnits="userSpaceOnUse" color-interpolation-filters="sRGB">
<feFlood flood-opacity="0" result="BackgroundImageFix"/>
<feBlend mode="normal" in="SourceGraphic" in2="BackgroundImageFix" result="shape"/>
<feGaussianBlur stdDeviation="3" result="effect1_foregroundBlur"/>
</filter>
<linearGradient id="paint0_linear" x1="128.063" y1="142.072" x2="118.231" y2="123.768" gradientUnits="userSpaceOnUse">
<stop stop-color="#80011B"/>
<stop offset="1" stop-color="#AE0C2E" stop-opacity="0"/>
</linearGradient>
<radialGradient id="paint1_radial" cx="0" cy="0" r="1" gradientUnits="userSpaceOnUse" gradientTransform="translate(113.068 161.636) rotate(82.8293) scale(5.74488 88.5518)">
<stop stop-color="#DBDEE6"/>
<stop offset="1" stop-color="#C5C6DB"/>
</radialGradient>
<linearGradient id="paint2_linear" x1="20.1225" y1="179.812" x2="18.7921" y2="167.839" gradientUnits="userSpaceOnUse">
<stop stop-color="#C69C43"/>
<stop offset="1" stop-color="#C69C43" stop-opacity="0"/>
</linearGradient>
<linearGradient id="paint3_linear" x1="31.4425" y1="184.912" x2="33.7781" y2="177.751" gradientUnits="userSpaceOnUse">
<stop stop-color="#C69C43"/>
<stop offset="1" stop-color="#C69C43" stop-opacity="0"/>
</linearGradient>
<linearGradient id="paint4_linear" x1="19.0296" y1="172.218" x2="23.3184" y2="134.495" gradientUnits="userSpaceOnUse">
<stop stop-color="#880721"/>
<stop offset="1" stop-color="#990C29" stop-opacity="0"/>
</linearGradient>
<linearGradient id="paint5_linear" x1="31.4739" y1="182.458" x2="46.4308" y2="153.235" gradientUnits="userSpaceOnUse">
<stop stop-color="#890722"/>
<stop offset="1" stop-color="#8F0824" stop-opacity="0"/>
</linearGradient>
<linearGradient id="paint6_linear" x1="43.593" y1="133.39" x2="106.902" y2="-11.033" gradientUnits="userSpaceOnUse">
<stop stop-color="#8BC4E9" stop-opacity="0"/>
<stop offset="1" stop-color="#8BC4E9"/>
</linearGradient>
<linearGradient id="paint7_linear" x1="20.9095" y1="32.5156" x2="53.4324" y2="71.0102" gradientUnits="userSpaceOnUse">
<stop stop-color="white"/>
<stop offset="1" stop-color="white" stop-opacity="0"/>
</linearGradient>
<radialGradient id="paint8_radial" cx="0" cy="0" r="1" gradientUnits="userSpaceOnUse" gradientTransform="translate(61.5178 74.5974) rotate(81.9861) scale(68.0879)">
<stop offset="0.203125" stop-color="#8BC4E9" stop-opacity="0"/>
<stop offset="1" stop-color="#8BC4E9"/>
</radialGradient>
<linearGradient id="paint9_linear" x1="20.9095" y1="32.5156" x2="53.4324" y2="71.0102" gradientUnits="userSpaceOnUse">
<stop stop-color="white"/>
<stop offset="1" stop-color="white" stop-opacity="0"/>
</linearGradient>
<linearGradient id="paint10_linear" x1="142.02" y1="169.992" x2="100.134" y2="67.3051" gradientUnits="userSpaceOnUse">
<stop stop-color="white"/>
<stop offset="1" stop-color="white" stop-opacity="0"/>
</linearGradient>
</defs>
</svg>
