<svg width="266" height="329" viewBox="0 0 266 329" fill="none" xmlns="http://www.w3.org/2000/svg">
    <g id="hamster">
        <ellipse id="hamster shadow" opacity="0.75" cx="75.7731" cy="312.617" rx="75.7731" ry="15.6174" fill="#070E2B" />
        <g id="hamster_2">
            <path id="Vector 3" d="M131.679 313.948C127.715 304.699 112.234 300.866 109.405 300.866C109.405 300.866 103.504 299.434 102.004 304.934C100.504 310.434 103.612 312.379 105.622 313.402C107.632 314.425 110.294 315.033 113.844 315.54C117.393 316.047 121.457 317.868 125.669 317.837C130.655 317.8 132.285 315.361 131.679 313.948Z" fill="#FAB5A5" />
            <path id="Vector 19" d="M30.7435 305.744C36.1066 301.881 39.7692 301.182 42.2036 300.643C47.248 299.525 49.1433 298.141 51.8099 301.844C54.4765 305.546 52.9152 311.046 49.3414 312.265C45.7675 313.484 42.7606 314.079 39.3681 315.822C32.5017 319.348 25.6394 321.348 23.4964 318.372C21.6523 315.812 26.1762 309.033 30.7435 305.744Z" fill="#FAB5A5" />
            <path id="Vector 44" d="M135.57 184.491C123.999 177.53 121.573 169.384 116.151 164.496L93.8603 176.054C98.4046 186.168 120.266 199.675 127.373 201.813C136.881 204.672 165.081 209.182 173.544 209.182C183.779 209.182 190.797 202.966 188.151 199.593C185.504 196.22 180.019 197.842 175.546 197.101C167.35 195.744 147.141 191.453 135.57 184.491Z" fill="#E1A44F" />
            <path id="Vector 48" d="M135.57 184.492C123.999 177.53 121.573 169.384 116.151 164.496L93.8602 176.054C98.4045 186.168 120.266 199.675 127.373 201.813C133.672 203.707 148.175 206.326 159.708 207.877C157.931 206.314 157.385 204.219 157.931 200.446C158.477 196.672 161.743 194.827 163.198 194.558C154.089 192.36 143.033 188.981 135.57 184.492Z" fill="#A91735" />
            <path id="Vector 6" d="M31.0209 157.547C31.6252 156.606 32.8336 154.724 36.1913 151.566C40.5966 148.017 50.3512 142.43 76.6421 144.86C102.933 147.29 111.417 158.162 114.966 162.567C118.515 166.972 121.747 171.359 127.879 185.282C134.011 199.206 135.636 218.101 137.831 230.406C139.969 242.393 147.379 258.314 142.081 279.645C138.9 292.456 124.538 300.888 116.375 303.529C96.9642 310.993 77.0611 309.771 55.7029 306.548C32.1662 302.995 16.7786 294.243 9.82337 274.951C3.93806 258.627 6.98476 240.617 9.24378 233.652C10.9521 227.131 13.4959 212.854 14.0171 208.015C15.1953 197.079 18.8948 182.923 20.2669 178.012C21.9037 172.154 30.4167 158.487 31.0209 157.547Z" fill="#E1A44F" stroke="#886C31" />
            <path id="Vector 2" d="M105.957 194.84C122.969 196.672 116.265 226.196 124.759 252.254C135.026 283.749 111.469 300.483 97.4589 301.729C83.4488 302.975 64.6482 303.535 56.145 283.768C50.3694 270.341 55.2792 255.286 60.3288 235.598C66.3988 211.93 84.4788 192.526 105.957 194.84Z" fill="#EFC15F" />
            <path id="Vector 45" d="M30.6155 157.157C31.2197 156.216 32.6706 153.995 36.0282 150.836C40.4335 147.288 50.3511 142.43 76.6421 144.86C102.933 147.29 111.87 158.044 115.418 162.45C118.967 166.855 121.293 169.195 128.135 184.752C134.978 200.31 136.112 217.972 138.306 230.278C138.91 233.666 139.404 235.064 140.445 239.115C140.445 245.533 135.668 255.158 108.636 259.817C83.2584 264.19 16.2773 257.985 8.82073 233.156C10.5291 226.635 12.9421 212.818 13.4634 207.98C14.6416 197.043 18.5496 181.97 19.9217 177.059C21.5355 171.283 29.7753 158.464 30.5855 157.204L30.6155 157.157Z" fill="#A91735" />
            <path id="Vector 138" d="M118.918 167.819C125.071 177.088 131.121 190.195 134.237 203.358" stroke="url(#paint0_linear)" />
            <path id="scottybeam" d="M111.879 203.653C111.341 203.653 110.883 203.465 110.504 203.09C110.146 202.693 110.04 202.189 109.947 201.65L109.765 200.646L111.547 199.712L111.887 201.65L113.782 201.111L114.737 195.753L109.411 198.645L108.162 191.634C108.069 191.074 108.326 190.622 108.684 190.225C109.063 189.829 109.521 189.631 110.059 189.631L115.611 189.091C116.129 189.091 116.577 189.29 116.956 189.686C117.334 190.082 117.524 190.552 117.524 191.094L115.346 192.096L115.538 191.094L110.138 191.634L110.854 195.656L117.161 193.142C117.161 193.142 115.823 200.541 115.723 201.111C115.623 201.68 115.514 202.154 115.136 202.55C114.757 202.926 114.309 203.114 113.791 203.114L111.879 203.653Z" fill="url(#paint1_radial)" />
            <path id="Vector 137" d="M53.4759 172.654C39.041 167.448 33.564 157.843 33.564 153.515C34.7672 151.774 35.3137 151.624 36.2612 150.418L115.092 161.968C115.472 162.43 116.532 163.641 116.532 163.641C113.554 172.927 104.088 173.735 93.2619 191.226C93.2619 191.226 81.0022 182.582 53.4759 172.654Z" fill="black" />
            <g id="Vector 47">
                <path d="M18.7397 230.394C19.6117 226.968 19.4415 221.526 18.9237 219.35C19.7762 220.307 20.9596 221.597 24.2109 221.896C27.426 222.191 29.5324 221.231 31.0062 219.981C30.4229 221.19 30.1312 223.791 30.1312 225.356C30.1312 229.469 30.9841 233.666 30.1312 235.606L28.9269 237.182C29.5706 240.69 30.5241 243.842 28.3375 244.001C17.1866 244.811 17.6185 234.799 18.7397 230.394Z" fill="#EFC15F" />
                <path d="M28.7893 230.471C28.3786 232.427 28.5019 234.865 28.9269 237.182M28.9269 237.182C29.5706 240.69 30.5241 243.842 28.3375 244.001C17.1866 244.811 17.6185 234.799 18.7397 230.394C19.6117 226.968 19.4415 221.526 18.9237 219.35C19.7762 220.307 20.9596 221.597 24.2109 221.896C27.426 222.191 29.5324 221.231 31.0062 219.981C30.4229 221.19 30.1312 223.791 30.1312 225.356C30.1312 229.469 30.9841 233.666 30.1312 235.606L28.9269 237.182Z" stroke="#EFC15F" />
            </g>
            <path id="Vector 46" opacity="0.7" d="M34.848 209.244C36.1896 203.972 40.2012 193.39 49.4021 187.341C52.5782 186.291 58.8646 190.97 51.914 194.708C44.9634 198.446 43.0854 197.636 39.0721 204.336C35.2289 210.751 34.18 216.313 32.678 216.585C31.4764 216.802 33.0536 214.863 33.2623 214.242C33.8822 212.425 34.4697 210.73 34.848 209.244Z" fill="#7D0B22" />
            <path id="Vector 8" d="M24.0225 169.616C20.7613 175.815 17.9185 185.805 17.3981 195.304C16.8776 204.803 16.7909 211.136 18.8043 219.595C19.3222 221.77 19.4924 227.212 18.6203 230.638C17.4992 235.044 17.0672 245.055 28.2181 244.245C31.8486 243.981 27.6372 235.633 28.6699 230.715" stroke="url(#paint2_linear)" />
            <path id="Vector 26" d="M48.9544 187.137C39.7535 193.187 35.7419 203.769 34.4002 209.04C33.0586 214.312 29.0832 222.211 30.3755 228.888C31.3112 233.722 30.5128 236.949 29.4115 237.836" stroke="url(#paint3_linear)" />
            <path id="Vector 139" d="M24.0225 169.616C20.7613 175.815 17.9185 185.805 17.3981 195.304C16.8887 204.601 16.7948 210.865 18.6784 219.056" stroke="url(#paint4_linear)" />
            <path id="Vector 140" d="M48.9544 187.137C39.7535 193.187 35.7419 203.769 34.4002 209.04C33.6702 211.909 32.1602 215.555 31.1436 219.36" stroke="url(#paint5_linear)" />
            <path id="Vector 15" d="M120.584 69.1C127.369 69.8309 129.01 74.1824 128.983 76.2668C121.756 81.101 107.215 89.2117 106.86 82.9806C106.417 75.1917 112.103 68.1863 120.584 69.1Z" fill="#E1A44F" stroke="#886C31" />
            <path id="Vector 16" d="M44.956 67.5866C39.3956 66.9875 36.6238 70.9747 36.4105 72.9542C42.4416 79.2167 54.922 90.2386 56.5953 84.2259C58.5661 77.1446 53.3233 68.488 44.956 67.5866Z" fill="#E1A44F" stroke="#886C31" />
            <path id="Vector 14" d="M128.975 76.3399C127.932 86.0171 117.6 89.8287 113.717 89.9416C110.669 87.9437 110.523 86.486 109.578 85.3976C111.072 69.0613 125.287 69.7197 128.975 76.3399Z" fill="#EFC15F" stroke="#886C31" />
            <path id="Vector 17" d="M36.2941 72.6534C34.3799 80.7241 46.3896 87.3483 50.269 88.2725C53.6726 86.9696 52.7681 86.1559 53.9235 85.2938C54.5338 71.6721 41.5281 67.0833 36.2941 72.6534Z" fill="#EFC15F" stroke="#886C31" />
            <path id="Vector 13" d="M80.9067 173.566C97.1709 175.318 112.706 165.58 113.923 162.393C107.142 163.991 91.5029 167.184 79.2187 166.42C66.9344 165.655 46.5933 156.108 37.3979 151.479C38.8548 154.169 44.3839 169.631 80.9067 173.566Z" fill="#BA8740" />
            <path id="Vector 10" d="M122.616 105.558C123.236 119.203 132.501 125.835 130.906 140.648C128.174 166.004 94.3948 171.414 74.5151 169.273C31.7625 164.667 29.5203 139.239 31.6415 128.445C34.2147 115.352 43.1281 114.635 48.3047 94.0084C51.7297 80.3615 66.4044 71.8434 86.7864 74.0392C109.533 76.4898 122.295 98.4833 122.616 105.558Z" fill="#E1A44F" stroke="#886C31" />
            <path id="Vector 29" d="M32.1234 128.52C34.6966 115.427 43.6084 114.779 48.785 94.1519C50.6674 86.6517 55.5572 81.036 63.3154 77.5612C66.2395 76.2441 69.3222 75.5148 69.3222 75.5148C69.3222 75.5148 64.2566 77.6626 61.386 87.4715C57.5927 105.264 45.9215 121.689 48.4653 138.029C52.8825 166.402 92.161 170.634 74.6436 168.747C32.6304 164.221 30.0022 139.314 32.1234 128.52Z" fill="#C99041" />
            <path id="Vector" d="M97.511 132.42C95.0779 131.011 93.5466 134.036 92.7584 136.229C92.5116 136.915 91.6636 136.564 91.9591 135.909C92.5014 133.956 94.0428 130.825 96.2895 130.322C97.2164 130.121 97.823 130.715 98.4657 131.378C99.7923 132.774 100.912 134.477 101.935 136.109C102.302 136.695 101.661 137.447 101.116 136.654C99.8695 135.227 99.2195 133.406 97.511 132.42Z" fill="#88631E" />
            <path id="Vector 18" d="M95.4439 121.071C91.1256 120.605 90.0671 122.507 90.0847 123.618C90.1287 126.398 94.8925 126.214 96.2769 127.558C97.7554 126.127 100.824 127.054 101.189 124.814C101.498 122.919 99.762 121.536 95.4439 121.071Z" fill="#956919" />
            <path id="Ellipse 1" d="M63.986 108.294C63.3353 114.334 67.779 119.766 75.2359 120.57C83.1898 121.427 86.7537 116.354 87.4044 110.314C88.0551 104.274 83.241 98.8019 76.6517 98.092C70.0624 97.3821 64.6368 102.254 63.986 108.294Z" fill="white" />
            <path id="Ellipse 6" d="M63.986 108.294C63.3353 114.334 67.779 119.766 75.2359 120.57C76.3632 120.691 66.7518 121.341 66.326 108.129C66.9767 102.089 83.2409 98.8019 76.6517 98.092C70.0624 97.3821 64.6367 102.254 63.986 108.294Z" fill="#ECECEC" />
            <path id="Ellipse 2" d="M100.812 107.232C100.175 113.138 104.213 119.165 111.511 119.952C119.296 120.79 123.15 114.608 123.786 108.702C124.423 102.796 119.322 98.6659 112.873 97.9711C106.424 97.2763 101.448 101.326 100.812 107.232Z" fill="white" />
            <path id="Ellipse 3" d="M100.811 107.232C100.175 113.138 104.212 119.165 111.511 119.952C115.473 120.378 102.142 120.566 103.632 106.733C104.268 100.827 119.322 98.6659 112.873 97.9711C106.424 97.2763 101.448 101.326 100.811 107.232Z" fill="#ECECEC" />
            <circle id="eyes" cx="115.5" cy="109.5" r="1.5" fill="black" />
            <circle id="eyes_2" cx="80.5" cy="110.5" r="1.5" fill="black" />
            <path id="Vector 11" d="M101.061 105.768C110.896 107.833 113.78 106.092 123.776 106.666C124.151 103.186 119.944 98.6058 112.984 97.8561C108.51 97.374 102.469 99.5124 101.061 105.768Z" fill="#BA8740" />
            <path id="Vector 24" d="M117.864 101.073C119.444 103.19 119.139 106.8 123.776 106.666C124.151 103.186 119.944 98.6058 112.984 97.856C108.51 97.374 116.399 99.1088 117.864 101.073Z" fill="#CF984C" />
            <path id="Vector 12" d="M64.5277 105.838C75.4644 107.016 81.9236 108.718 87.1626 106.768C86.5433 103.181 83.285 98.7917 76.3253 98.0419C71.8512 97.5599 66.111 100.477 64.5277 105.838Z" fill="#BA8740" />
            <path id="Vector 25" d="M80.9025 100.868C82.995 103.238 82.1137 107.032 87.1626 106.768C86.5433 103.181 83.285 98.7917 76.3253 98.0419C71.8512 97.5599 78.81 98.4972 80.9025 100.868Z" fill="#C99C59" />
            <path id="Ellipse 4" d="M111.457 120.449C103.873 119.632 99.6499 113.348 100.314 107.179C100.982 100.985 106.217 96.7511 112.927 97.474C116.236 97.8305 119.231 99.0711 121.327 101.016C123.432 102.97 124.62 105.63 124.284 108.755C123.957 111.787 122.803 114.919 120.696 117.196C118.574 119.489 115.509 120.885 111.457 120.449Z" stroke="#88621C" />
            <path id="Ellipse 5" d="M75.1823 121.067C67.4961 120.239 62.804 114.598 63.4889 108.24C64.1675 101.941 69.826 96.8537 76.7052 97.5949C83.5275 98.3298 88.5861 104.013 87.9015 110.368C87.5682 113.461 86.4838 116.364 84.4078 118.386C82.317 120.423 79.2813 121.508 75.1823 121.067Z" stroke="#88621C" />
            <path id="Vector 22" d="M123.934 106.702C113.938 106.128 110.896 107.833 101.061 105.768" stroke="#88621C" />
            <path id="Vector 23" d="M87.1626 106.768C81.9236 108.718 75.1065 106.978 64.1697 105.799" stroke="#88621C" />
            <g id="helmet">
                <g id="Mask Group">
                    <mask id="mask0" mask-type="alpha" maskUnits="userSpaceOnUse" x="11" y="37" width="143" height="143">
                        <circle id="Ellipse 3_2" opacity="0.9" r="70.5102" transform="matrix(-1 8.88926e-08 8.88926e-08 1 82.1771 108.836)" fill="url(#paint6_linear)" stroke="url(#paint7_linear)" />
                    </mask>
                    <g mask="url(#mask0)">
                        <circle id="Ellipse 6_2" opacity="0.9" r="70.5102" transform="matrix(-1 8.88926e-08 8.88926e-08 1 82.1771 108.836)" fill="url(#paint8_radial)" stroke="url(#paint9_linear)" />
                    </g>
                </g>
                <circle id="Ellipse 7" opacity="0.9" r="70.5102" transform="matrix(-1 8.88926e-08 8.88926e-08 1 82.1771 108.836)" stroke="url(#paint10_linear)" />
                <g id="Ellipse 4_2" opacity="0.6" filter="url(#filter0_f)">
                    <ellipse rx="13.3688" ry="4.29011" transform="matrix(-0.956667 -0.291183 -0.291183 0.956667 100.438 49.0406)" fill="white" />
                </g>
                <g id="Ellipse 5_2" opacity="0.6" filter="url(#filter1_f)">
                    <ellipse rx="7.71959" ry="4.29011" transform="matrix(-0.119306 0.992857 0.992857 0.119306 145.87 113.471)" fill="white" />
                </g>
            </g>
        </g>
        <g id="hamster button">
            <path id="Vector 113" d="M181.569 321.577L180.531 232.251H186.006L184.241 321.577H181.569Z" fill="#909090" />
            <path id="Vector 116" d="M180.531 232.251H186.006L185.857 239.787L180.599 238.083L180.531 232.251Z" fill="#717171" />
            <path id="Vector 121" d="M180.692 247.278V245.684L185.707 245.794V247.536L180.692 247.278Z" fill="#717171" />
            <path id="Vector 122" d="M185.569 253.897L185.621 252.175H180.781V254.02L185.569 253.897Z" fill="#717171" />
            <path id="Vector 123" d="M185.442 260.445L185.481 258.499L180.824 258.448L180.86 260.37L185.442 260.445Z" fill="#717171" />
            <path id="Vector 114" d="M196.279 324.32C190.077 326.708 176.46 326.604 170.258 324.32L183.066 319.987L196.279 324.32Z" fill="url(#paint11_linear)" />
            <path id="Vector 112" d="M166.007 232.628L164.345 230.655H200.372L198.814 233.251L166.007 232.628Z" fill="url(#paint12_linear)" />
            <path id="Vector 117" d="M174.942 218.613L174.355 215.551L190.152 215.007L189.447 218.613H174.942Z" fill="#C61002" />
            <path id="Vector 115" d="M193.401 213.662C189.655 211.503 178.266 209.876 171.351 214.387C170.796 215.533 177.082 216.051 182.703 215.94C188.104 215.833 193.401 215.053 193.401 213.662Z" fill="#FF1504" />
            <path id="Vector 111" d="M161.59 230.663L159.25 218.962L208.394 216.956L204.717 230.663H161.59Z" fill="#599DC2" />
            <path id="Vector 128" d="M208.394 216.956L204.717 230.663H195.194L197.217 217.413L208.394 216.956Z" fill="#72B0D2" />
            <path id="Vector 125" d="M192.587 257.861C193.747 257.776 193.605 255.684 192.587 255.815C192.587 255.815 190.245 256.362 184.325 256.362C178.406 256.362 174.957 255.816 174.957 255.816C173.782 255.65 173.482 257.805 174.957 258.048C174.957 258.048 177.6 258.496 184.326 258.496C191.051 258.496 192.587 257.861 192.587 257.861Z" fill="url(#paint13_linear)" />
            <path id="Vector 126" d="M172.135 251.614C170.974 251.529 171.116 249.437 172.135 249.568C172.135 249.568 177.112 250.041 183.032 250.041C188.952 250.041 195.044 249.308 195.044 249.308C196.219 249.142 196.519 251.297 195.044 251.54C195.044 251.54 189.758 252.175 183.032 252.175C176.307 252.175 172.135 251.614 172.135 251.614Z" fill="url(#paint14_linear)" />
            <path id="Vector 127" d="M195.223 245.246C196.384 245.161 196.242 243.069 195.223 243.201C195.223 243.201 190.245 243.673 184.325 243.673C178.406 243.673 172.314 242.94 172.314 242.94C171.139 242.774 170.838 244.929 172.314 245.172C172.314 245.172 177.6 245.807 184.325 245.807C191.051 245.807 195.223 245.246 195.223 245.246Z" fill="url(#paint15_linear)" />
        </g>
    </g>
    <defs>
        <filter id="filter0_f" x="80.3996" y="35.0436" width="40.0775" height="27.994" filterUnits="userSpaceOnUse" color-interpolation-filters="sRGB">
            <feFlood flood-opacity="0" result="BackgroundImageFix" />
            <feBlend mode="normal" in="SourceGraphic" in2="BackgroundImageFix" result="shape" />
            <feGaussianBlur stdDeviation="3" result="effect1_foregroundBlur" />
        </filter>
        <filter id="filter1_f" x="134.69" y="99.2951" width="22.3609" height="28.3526" filterUnits="userSpaceOnUse" color-interpolation-filters="sRGB">
            <feFlood flood-opacity="0" result="BackgroundImageFix" />
            <feBlend mode="normal" in="SourceGraphic" in2="BackgroundImageFix" result="shape" />
            <feGaussianBlur stdDeviation="3" result="effect1_foregroundBlur" />
        </filter>
        <linearGradient id="paint0_linear" x1="129.628" y1="184.049" x2="119.796" y2="165.745" gradientUnits="userSpaceOnUse">
            <stop stop-color="#80011B" />
            <stop offset="1" stop-color="#AE0C2E" stop-opacity="0" />
        </linearGradient>
        <radialGradient id="paint1_radial" cx="0" cy="0" r="1" gradientUnits="userSpaceOnUse" gradientTransform="translate(112.674 196.337) rotate(82.8293) scale(5.74488 88.5518)">
            <stop stop-color="#DBDEE6" />
            <stop offset="1" stop-color="#C5C6DB" />
        </radialGradient>
        <linearGradient id="paint2_linear" x1="19.7284" y1="214.513" x2="18.3981" y2="202.539" gradientUnits="userSpaceOnUse">
            <stop stop-color="#C69C43" />
            <stop offset="1" stop-color="#C69C43" stop-opacity="0" />
        </linearGradient>
        <linearGradient id="paint3_linear" x1="31.0485" y1="219.612" x2="33.384" y2="212.451" gradientUnits="userSpaceOnUse">
            <stop stop-color="#C69C43" />
            <stop offset="1" stop-color="#C69C43" stop-opacity="0" />
        </linearGradient>
        <linearGradient id="paint4_linear" x1="18.6356" y1="206.919" x2="22.9244" y2="169.196" gradientUnits="userSpaceOnUse">
            <stop stop-color="#880721" />
            <stop offset="1" stop-color="#990C29" stop-opacity="0" />
        </linearGradient>
        <linearGradient id="paint5_linear" x1="31.0799" y1="217.159" x2="46.0368" y2="187.935" gradientUnits="userSpaceOnUse">
            <stop stop-color="#890722" />
            <stop offset="1" stop-color="#8F0824" stop-opacity="0" />
        </linearGradient>
        <linearGradient id="paint6_linear" x1="43.593" y1="133.39" x2="106.902" y2="-11.033" gradientUnits="userSpaceOnUse">
            <stop stop-color="#8BC4E9" stop-opacity="0" />
            <stop offset="1" stop-color="#8BC4E9" />
        </linearGradient>
        <linearGradient id="paint7_linear" x1="20.9095" y1="32.5156" x2="53.4324" y2="71.0102" gradientUnits="userSpaceOnUse">
            <stop stop-color="white" />
            <stop offset="1" stop-color="white" stop-opacity="0" />
        </linearGradient>
        <radialGradient id="paint8_radial" cx="0" cy="0" r="1" gradientUnits="userSpaceOnUse" gradientTransform="translate(61.5178 74.5974) rotate(81.9861) scale(68.0879)">
            <stop offset="0.203125" stop-color="#8BC4E9" stop-opacity="0" />
            <stop offset="1" stop-color="#8BC4E9" />
        </radialGradient>
        <linearGradient id="paint9_linear" x1="20.9095" y1="32.5156" x2="53.4324" y2="71.0102" gradientUnits="userSpaceOnUse">
            <stop stop-color="white" />
            <stop offset="1" stop-color="white" stop-opacity="0" />
        </linearGradient>
        <linearGradient id="paint10_linear" x1="142.02" y1="169.992" x2="100.134" y2="67.3051" gradientUnits="userSpaceOnUse">
            <stop stop-color="white" />
            <stop offset="1" stop-color="white" stop-opacity="0" />
        </linearGradient>
        <linearGradient id="paint11_linear" x1="175.9" y1="322.338" x2="184.254" y2="322.561" gradientUnits="userSpaceOnUse">
            <stop stop-color="#E6E6E6" />
            <stop offset="1" stop-color="#C4C4C4" />
        </linearGradient>
        <linearGradient id="paint12_linear" x1="172.157" y1="231.658" x2="194.007" y2="231.475" gradientUnits="userSpaceOnUse">
            <stop stop-color="#E6E6E6" />
            <stop offset="1" stop-color="#C4C4C4" />
        </linearGradient>
        <linearGradient id="paint13_linear" x1="176.484" y1="256.489" x2="191.782" y2="256.369" gradientUnits="userSpaceOnUse">
            <stop stop-color="#E6E6E6" />
            <stop offset="1" stop-color="#C4C4C4" />
        </linearGradient>
        <linearGradient id="paint14_linear" x1="190.874" y1="250.168" x2="175.576" y2="250.047" gradientUnits="userSpaceOnUse">
            <stop stop-color="#E6E6E6" />
            <stop offset="1" stop-color="#C4C4C4" />
        </linearGradient>
        <linearGradient id="paint15_linear" x1="176.484" y1="243.8" x2="191.782" y2="243.68" gradientUnits="userSpaceOnUse">
            <stop stop-color="#E6E6E6" />
            <stop offset="1" stop-color="#C4C4C4" />
        </linearGradient>
    </defs>
</svg>
